<svg version="1.1" id="Layer_1" xmlns="http://www.w3.org/2000/svg" xmlns:xlink="http://www.w3.org/1999/xlink" x="0px" y="0px"
	 width="100%" viewBox="0 0 300 300" enable-background="new 0 0 300 300" xml:space="preserve">
<path fill="#FFFFFF" opacity="1.000000" stroke="none" 
	d="
M144.000000,301.000000 
	C96.000008,301.000000 48.500015,301.000000 1.000019,301.000000 
	C1.000013,201.000031 1.000013,101.000053 1.000006,1.000059 
	C100.999962,1.000040 200.999924,1.000040 300.999908,1.000020 
	C300.999939,100.999939 300.999939,200.999878 300.999969,300.999908 
	C248.833328,301.000000 196.666672,301.000000 144.000000,301.000000 
M126.983093,197.896103 
	C126.883537,197.692001 126.721382,197.574203 126.040520,196.832352 
	C120.950661,194.193390 112.895485,194.871277 110.115036,197.694962 
	C110.115036,197.694962 109.701279,197.467987 109.139282,197.163727 
	C108.937195,197.096375 108.735100,197.029007 107.812355,196.611130 
	C105.139870,196.185226 102.388443,195.172836 99.819809,195.518555 
	C97.756264,195.796265 95.914154,197.719223 93.745750,199.340881 
	C93.745750,199.340881 93.643669,199.815643 93.046585,199.149506 
	C92.778687,199.018524 92.510796,198.887558 92.301529,198.502686 
	C92.351227,198.209778 92.257584,197.998642 91.676056,196.949997 
	C89.242447,196.345078 86.808830,195.740158 84.259155,194.420578 
	C83.819557,192.988159 83.379959,191.555740 82.872032,189.310425 
	C80.849586,189.354721 78.827141,189.399017 76.164932,189.958740 
	C75.775009,190.328018 75.385086,190.697311 74.156387,190.742538 
	C65.775772,188.748215 61.624840,190.811493 59.034027,198.379684 
	C59.027164,198.918198 59.020298,199.456696 58.722679,200.820465 
	C58.828278,202.551178 58.933876,204.281891 58.840324,206.379242 
	C58.999191,206.884369 59.158062,207.389496 59.248322,208.471039 
	C59.516350,208.974716 59.784382,209.478378 60.054569,210.579758 
	C60.783493,211.475937 61.512421,212.372101 62.715149,213.921509 
	C64.383873,214.604202 66.022186,215.778976 67.726585,215.884323 
	C75.069580,216.338150 82.425232,213.549072 89.809120,215.934570 
	C90.382622,216.119843 91.229729,215.302322 91.989662,215.104370 
	C93.028702,214.833725 94.115585,214.509079 95.165390,214.558624 
	C99.678413,214.771713 104.190338,215.395615 108.692924,215.316437 
	C112.133026,215.255920 115.558525,214.364792 119.525940,214.041916 
	C120.022278,214.300217 120.518616,214.558533 121.557999,215.281784 
	C123.366417,215.127167 125.174835,214.972549 127.612289,214.608902 
	C128.115265,214.245697 128.618225,213.882507 129.618134,214.136154 
	C131.924820,214.740707 134.212982,215.742828 136.542801,215.851456 
	C139.612839,215.994614 142.732880,215.093109 145.800873,215.247559 
	C153.114197,215.615738 153.149139,215.759827 153.197586,208.445465 
	C153.213684,206.017136 153.009048,203.631088 156.602829,204.765472 
	C156.411987,205.840103 156.221146,206.914734 155.812881,208.654678 
	C155.891327,209.107986 155.969757,209.561279 155.849747,210.452728 
	C156.153198,211.168106 156.456650,211.883484 157.040787,213.360611 
	C157.679520,213.253220 158.318237,213.145828 158.997513,212.998123 
	C158.997513,212.998123 158.958969,213.041061 158.153610,213.662003 
	C162.910873,218.153580 168.045059,215.622696 173.827164,214.887436 
	C181.259995,215.127090 188.692017,215.433167 196.126663,215.523895 
	C197.075638,215.535477 198.038315,214.423920 199.624023,214.016907 
	C200.016357,214.209854 200.408691,214.402817 201.274719,215.126450 
	C203.509125,214.734695 205.743546,214.342926 208.792526,214.053314 
	C209.527756,214.382950 210.262970,214.712585 211.649750,215.565521 
	C215.763550,215.322723 219.877335,215.079941 224.781601,214.829193 
	C229.736908,215.124481 234.697098,215.645782 239.643677,215.538452 
	C240.729019,215.514893 242.515518,213.345718 242.678314,212.006500 
	C243.094849,208.580322 242.989395,205.047653 242.704056,201.589661 
	C242.316635,196.894623 239.188019,194.442261 234.514313,195.121216 
	C230.638000,195.684357 226.815094,196.614883 222.477661,196.772675 
	C217.929230,194.302429 213.445007,194.741623 208.179367,197.225418 
	C207.453293,197.140747 206.727234,197.056076 205.593750,196.332565 
	C203.403748,195.775696 201.213730,195.218826 198.961212,194.646072 
	C198.705002,191.722885 199.347061,188.522293 194.571365,188.537521 
	C187.710083,188.559372 191.377350,194.115097 189.783112,196.804123 
	C187.127823,196.019836 184.476624,195.236771 181.725769,194.424240 
	C181.678543,194.102829 181.507751,193.604309 181.550415,193.124771 
	C181.863174,189.609970 180.187302,188.496719 176.810715,188.564941 
	C173.172104,188.638428 172.845840,190.760208 172.966049,193.515305 
	C173.023849,194.840393 172.969498,196.170364 172.056412,197.438538 
	C168.397629,196.820145 164.757965,195.879044 161.075485,195.660995 
	C155.892288,195.354080 150.677338,195.583374 145.519882,195.583374 
	C145.136185,188.229721 144.281509,187.612427 137.290619,189.991547 
	C137.068329,191.705643 136.846024,193.419754 135.807678,195.009537 
	C133.885712,195.677750 131.963760,196.345947 129.387726,197.286331 
	C128.585922,197.593857 127.784111,197.901367 126.983093,197.896103 
M132.253403,92.692009 
	C135.566467,90.837769 138.678360,88.303238 142.229233,87.253151 
	C154.271545,83.691917 164.780029,86.798332 173.895279,95.423973 
	C177.706314,99.030312 182.185745,98.733742 185.372894,95.334663 
	C188.070969,92.457214 187.685135,87.648346 184.472229,84.109558 
	C170.720016,68.962387 144.787903,65.489258 127.579735,76.489861 
	C109.799377,87.856255 101.859039,106.449921 106.083153,126.827721 
	C109.899704,145.239349 125.222221,159.594940 145.236084,162.489944 
	C160.562653,164.706940 173.830963,159.671921 184.703232,148.664520 
	C188.050735,145.275391 188.010925,140.496918 185.074341,137.484070 
	C181.911377,134.238953 177.963974,134.213364 173.974701,137.425461 
	C173.196274,138.052246 172.443024,138.711029 171.690613,139.369278 
	C158.237640,151.138824 139.555237,149.678131 127.707375,135.928207 
	C116.825027,123.298798 118.597336,104.259506 132.253403,92.692009 
z"/>
<path fill="#5C2CB3" opacity="1.000000" stroke="none" 
	d="
M131.971802,92.916870 
	C118.597336,104.259506 116.825027,123.298798 127.707375,135.928207 
	C139.555237,149.678131 158.237640,151.138824 171.690613,139.369278 
	C172.443024,138.711029 173.196274,138.052246 173.974701,137.425461 
	C177.963974,134.213364 181.911377,134.238953 185.074341,137.484070 
	C188.010925,140.496918 188.050735,145.275391 184.703232,148.664520 
	C173.830963,159.671921 160.562653,164.706940 145.236084,162.489944 
	C125.222221,159.594940 109.899704,145.239349 106.083153,126.827721 
	C101.859039,106.449921 109.799377,87.856255 127.579735,76.489861 
	C144.787903,65.489258 170.720016,68.962387 184.472229,84.109558 
	C187.685135,87.648346 188.070969,92.457214 185.372894,95.334663 
	C182.185745,98.733742 177.706314,99.030312 173.895279,95.423973 
	C164.780029,86.798332 154.271545,83.691917 142.229233,87.253151 
	C138.678360,88.303238 135.566467,90.837769 131.971802,92.916870 
z"/>
<path fill="#302F2F" opacity="1.000000" stroke="none" 
	d="
M172.965958,197.498123 
	C172.969498,196.170364 173.023849,194.840393 172.966049,193.515305 
	C172.845840,190.760208 173.172104,188.638428 176.810715,188.564941 
	C180.187302,188.496719 181.863174,189.609970 181.550415,193.124771 
	C181.507751,193.604309 181.678543,194.102829 181.725769,194.424240 
	C184.476624,195.236771 187.127823,196.019836 189.783112,196.804123 
	C191.377350,194.115097 187.710083,188.559372 194.571365,188.537521 
	C199.347061,188.522293 198.705002,191.722885 198.961212,194.646072 
	C201.213730,195.218826 203.403748,195.775696 205.781052,197.072968 
	C205.906433,198.371292 205.844513,198.929214 205.430893,199.261353 
	C202.443069,198.577652 199.806961,198.119751 196.719879,197.583496 
	C196.719879,196.634995 196.975403,195.268112 196.641724,194.064621 
	C196.357849,193.040817 195.395035,192.205261 194.732605,191.286423 
	C193.963364,192.264328 192.562347,193.220810 192.528336,194.223648 
	C192.321198,200.332260 192.424927,206.451431 192.424927,212.494217 
	C195.309753,213.497681 196.984512,213.276535 196.745911,209.949829 
	C196.615784,208.135498 196.383011,206.200485 196.873901,204.517487 
	C197.170273,203.501343 198.682800,202.449554 199.810455,202.224915 
	C200.407318,202.106003 201.828613,203.619888 202.031906,204.576401 
	C202.403046,206.322723 202.231110,208.207397 202.131439,210.025894 
	C201.947601,213.379440 203.581619,213.509995 205.955399,212.561172 
	C205.955399,208.236099 205.955399,204.117203 206.270538,200.118179 
	C210.415131,201.488922 208.412888,198.290848 209.002487,197.070053 
	C213.445007,194.741623 217.929230,194.302429 222.697937,197.217499 
	C222.918213,197.662308 222.890549,197.945084 222.519745,197.976135 
	C221.652863,198.049561 221.156769,198.091949 220.231293,198.117737 
	C216.807251,198.560822 213.099213,196.514160 210.543304,200.291321 
	C213.876938,201.017410 216.594421,201.609314 219.311920,202.201218 
	C219.201920,202.634415 219.091919,203.067627 218.981918,203.500824 
	C209.214951,205.186127 209.209076,205.191910 210.273346,211.886108 
	C209.322830,212.635117 208.650391,213.293152 207.977951,213.951172 
	C205.743546,214.342926 203.509125,214.734695 201.092072,214.370667 
	C200.809967,210.452682 200.710526,207.290466 200.611099,204.128265 
	C200.072266,204.164886 199.533447,204.201508 198.994629,204.238129 
	C198.994629,207.436310 198.994629,210.634491 198.994629,213.832672 
	C198.038315,214.423920 197.075638,215.535477 196.126663,215.523895 
	C188.692017,215.433167 181.259995,215.127090 173.586731,214.494720 
	C173.563461,213.729858 173.780624,213.357681 173.994385,212.524841 
	C173.960831,208.345535 173.930695,204.626892 173.917267,200.549164 
	C173.614609,199.322342 173.295197,198.454575 172.962585,197.549484 
	C172.949402,197.512161 172.965958,197.498123 172.965958,197.498123 
M175.394638,192.235535 
	C175.394638,199.036255 175.394638,205.836990 175.394638,212.898132 
	C177.806610,212.898132 179.979706,212.676193 182.090317,212.944931 
	C186.315811,213.482941 188.718002,212.088547 189.341782,207.616623 
	C190.340103,200.459518 188.434814,198.011948 181.468369,198.036133 
	C180.879211,198.038177 180.289276,197.815292 180.582474,197.874161 
	C178.072311,195.681290 182.500824,189.866623 175.394638,192.235535 
z"/>
<path fill="#2B2A2A" opacity="1.000000" stroke="none" 
	d="
M172.511185,197.468323 
	C172.965958,197.498123 172.949402,197.512161 172.640778,197.703552 
	C172.559174,198.924591 172.786179,199.954239 173.011719,201.442261 
	C173.339447,205.595596 173.668625,209.290543 173.997803,212.985504 
	C173.780624,213.357681 173.563461,213.729858 173.225922,214.283264 
	C168.045059,215.622696 162.910873,218.153580 158.954895,213.158157 
	C163.450058,212.654312 167.143951,212.654312 171.177734,212.654312 
	C171.177734,209.152298 171.541168,205.635788 171.014160,202.258209 
	C170.774689,200.723495 168.871979,198.421844 167.548508,198.294907 
	C164.731979,198.024750 161.121094,196.569214 158.640625,200.315475 
	C161.953430,200.991577 164.676682,201.547348 167.399933,202.103134 
	C167.291061,202.542603 167.182205,202.982071 167.073334,203.421539 
	C157.279663,205.371887 157.026001,205.672440 158.956970,213.038422 
	C158.318237,213.145828 157.679520,213.253220 156.962036,212.622101 
	C156.604935,211.260590 156.326569,210.637589 156.048187,210.014587 
	C155.969757,209.561279 155.891327,209.107986 156.151321,208.161407 
	C156.525238,206.471054 156.560715,205.273972 156.596191,204.076874 
	C153.009048,203.631088 153.213684,206.017136 153.197586,208.445465 
	C153.149139,215.759827 153.114197,215.615738 145.800873,215.247559 
	C142.732880,215.093109 139.612839,215.994614 136.542801,215.851456 
	C134.212982,215.742828 131.924820,214.740707 129.424820,213.305908 
	C129.423752,211.804260 129.616013,211.132858 130.074249,210.771652 
	C134.438232,211.871643 138.536240,212.661438 143.003876,213.522491 
	C143.003876,205.683029 143.003876,198.614304 143.003876,191.218124 
	C136.659164,190.674805 140.577637,196.138916 138.998398,197.630981 
	C136.105377,198.078842 133.552399,198.474060 130.980621,198.590912 
	C130.655136,197.879761 130.348465,197.446960 130.041794,197.014160 
	C131.963760,196.345947 133.885712,195.677750 136.533157,194.881378 
	C137.450897,193.004486 137.643173,191.255753 137.835449,189.507034 
	C144.281509,187.612427 145.136185,188.229721 145.519882,195.583374 
	C150.677338,195.583374 155.892288,195.354080 161.075485,195.660995 
	C164.757965,195.879044 168.397629,196.820145 172.511185,197.468323 
M148.525131,212.985916 
	C149.319931,212.099274 150.664642,211.289108 150.800705,210.310852 
	C151.134033,207.914200 150.909561,205.439957 150.909561,203.499176 
	C152.950943,201.509277 158.011505,203.130386 155.863281,198.461304 
	C152.873962,198.461304 150.098221,198.461304 146.870575,198.461304 
	C147.125702,203.310562 147.375717,208.062332 148.525131,212.985916 
z"/>
<path fill="#262525" opacity="1.000000" stroke="none" 
	d="
M109.867119,198.193451 
	C112.895485,194.871277 120.950661,194.193390 125.788055,197.341431 
	C125.248558,198.022919 124.961525,198.195312 124.243286,198.252853 
	C120.195244,198.138016 116.578407,198.138016 112.676056,198.138016 
	C112.676056,202.995911 112.676056,207.737320 112.676056,212.757355 
	C113.942833,212.757355 115.154022,212.757355 116.756622,212.757355 
	C116.756622,209.746643 116.531830,206.925781 116.867508,204.173294 
	C117.001305,203.076111 118.373810,202.129990 119.182419,201.115112 
	C120.107132,202.075531 121.031845,203.035934 121.610733,204.001190 
	C120.345245,203.915817 119.425575,203.825623 118.990517,203.782944 
	C118.990517,207.190460 118.990517,210.516815 118.990517,213.843155 
	C115.558525,214.364792 112.133026,215.255920 108.692924,215.316437 
	C104.190338,215.395615 99.678413,214.771713 95.165390,214.558624 
	C94.115585,214.509079 93.028702,214.833725 91.989662,215.104370 
	C91.229729,215.302322 90.382622,216.119843 89.809120,215.934570 
	C82.425232,213.549072 75.069580,216.338150 67.726585,215.884323 
	C66.022186,215.778976 64.383873,214.604202 62.997227,213.512512 
	C63.973217,213.007004 64.667130,212.910492 65.785866,212.850220 
	C69.319916,212.311005 73.765167,215.062424 75.488297,209.007797 
	C72.886086,209.007797 70.927986,209.007797 69.085777,208.504089 
	C72.001022,207.314423 76.313133,209.142395 76.896027,204.012238 
	C77.805374,207.051346 78.094986,209.821457 78.581139,214.471481 
	C80.321373,212.397964 81.561737,211.438141 82.051193,210.185028 
	C82.502907,209.028580 81.849678,207.464615 82.226807,206.248779 
	C82.682899,204.778412 83.710861,203.485413 84.491333,202.115662 
	C85.330055,203.568054 86.582901,204.934967 86.904648,206.494049 
	C87.324699,208.529510 87.007492,210.717117 87.007492,213.508545 
	C89.073517,212.889359 90.554962,212.445374 92.440292,211.998734 
	C93.921234,211.987640 94.998306,211.979202 96.453461,212.148254 
	C100.610359,212.553284 104.389183,212.780838 108.717583,213.041473 
	C108.717583,210.690704 108.714584,208.750687 108.718277,206.810669 
	C108.723869,203.874069 108.734123,200.937469 108.801849,198.260925 
	C109.196571,198.411804 109.531845,198.302628 109.867119,198.193451 
z"/>
<path fill="#363535" opacity="1.000000" stroke="none" 
	d="
M222.890549,197.945084 
	C222.890549,197.945084 222.918213,197.662308 222.943359,197.522491 
	C226.815094,196.614883 230.638000,195.684357 234.514313,195.121216 
	C239.188019,194.442261 242.316635,196.894623 242.704056,201.589661 
	C242.989395,205.047653 243.094849,208.580322 242.678314,212.006500 
	C242.515518,213.345718 240.729019,215.514893 239.643677,215.538452 
	C234.697098,215.645782 229.736908,215.124481 224.352371,214.537476 
	C223.565369,213.809235 223.207611,213.372696 222.947510,212.490875 
	C223.077347,208.689789 223.109528,205.334015 223.375183,201.762527 
	C223.369278,200.346252 223.129913,199.145660 222.890549,197.945084 
M228.447952,212.955261 
	C232.829849,212.424942 234.054184,209.734238 231.990387,205.541672 
	C231.478104,204.500977 230.952530,202.660583 231.448410,202.121185 
	C232.169586,201.336716 234.001831,200.886215 235.002975,201.257309 
	C235.851151,201.571701 236.584732,203.220032 236.680496,204.337067 
	C236.916916,207.094757 236.757996,209.886353 236.757996,212.678192 
	C241.086868,212.493423 241.187103,212.215332 240.653931,203.326614 
	C240.314774,197.672272 239.785645,197.479095 226.952866,198.576111 
	C227.162628,203.280792 227.374008,208.022156 228.447952,212.955261 
z"/>
<path fill="#EEEEEE" opacity="1.000000" stroke="none" 
	d="
M108.742401,198.000870 
	C108.734123,200.937469 108.723869,203.874069 108.718277,206.810669 
	C108.714584,208.750687 108.717583,210.690704 108.717583,213.041473 
	C104.389183,212.780838 100.610359,212.553284 96.369125,211.797028 
	C95.659889,209.848816 95.413078,208.429337 95.399139,206.731598 
	C98.456253,205.285431 101.280495,204.117508 105.554939,202.349884 
	C101.896240,201.584290 99.164978,201.012756 95.772285,200.302811 
	C98.813683,196.608139 102.554184,198.476883 105.801483,198.162704 
	C106.741920,198.071732 107.624107,197.378662 108.532997,196.961624 
	C108.735100,197.029007 108.937195,197.096375 109.366928,197.529144 
	C109.320137,198.007599 109.036079,198.043045 108.742401,198.000870 
z"/>
<path fill="#262525" opacity="1.000000" stroke="none" 
	d="
M59.349747,198.102371 
	C61.624840,190.811493 65.775772,188.748215 74.750412,191.114380 
	C75.831184,190.805252 76.317940,190.124283 76.804695,189.443314 
	C78.827141,189.399017 80.849586,189.354721 82.741592,189.952332 
	C82.287033,190.793503 81.962906,190.992752 81.222549,191.230896 
	C78.012848,190.912750 78.221573,192.742966 77.996536,194.691284 
	C77.700134,197.257339 76.869064,199.761627 76.127731,201.533112 
	C74.311768,195.969696 70.107819,199.304092 67.619171,197.750427 
	C70.192245,197.184845 72.465744,196.949921 75.593887,196.626694 
	C74.643112,195.235764 74.215904,193.877991 73.331963,193.438202 
	C68.135338,190.852692 61.881187,193.929367 61.236431,199.727921 
	C60.865665,203.062347 61.806004,206.542587 61.805717,209.971344 
	C60.987663,209.984360 60.520035,209.983215 60.052414,209.982056 
	C59.784382,209.478378 59.516350,208.974716 59.465118,208.020111 
	C59.467766,207.050339 59.253616,206.531464 59.039471,206.012604 
	C58.933876,204.281891 58.828278,202.551178 59.085533,200.290756 
	C59.415508,199.208160 59.382629,198.655258 59.349747,198.102371 
z"/>
<path fill="#262525" opacity="1.000000" stroke="none" 
	d="
M108.172676,196.786377 
	C107.624107,197.378662 106.741920,198.071732 105.801483,198.162704 
	C102.554184,198.476883 98.813683,196.608139 95.772285,200.302811 
	C99.164978,201.012756 101.896240,201.584290 105.554939,202.349884 
	C101.280495,204.117508 98.456253,205.285431 95.007812,206.731201 
	C93.601204,207.005585 92.818787,207.002121 91.954376,206.588165 
	C91.682404,204.013092 91.492439,201.848511 91.537682,199.452209 
	C91.929565,199.065857 92.086243,198.911224 92.242912,198.756607 
	C92.510796,198.887558 92.778687,199.018524 93.408066,199.391510 
	C93.939941,199.426773 94.008018,199.186310 93.973778,198.912140 
	C95.914154,197.719223 97.756264,195.796265 99.819809,195.518555 
	C102.388443,195.172836 105.139870,196.185226 108.172676,196.786377 
z"/>
<path fill="#302F2F" opacity="1.000000" stroke="none" 
	d="
M222.849838,212.936172 
	C223.207611,213.372696 223.565369,213.809235 223.957138,214.541443 
	C219.877335,215.079941 215.763550,215.322723 211.336990,214.863220 
	C211.085815,213.576614 211.147385,212.992310 211.598129,212.559143 
	C215.608154,212.785583 219.228989,212.860870 222.849838,212.936172 
z"/>
<path fill="#313131" opacity="1.000000" stroke="none" 
	d="
M119.258224,213.942535 
	C118.990517,210.516815 118.990517,207.190460 118.990517,203.782944 
	C119.425575,203.825623 120.345245,203.915817 121.697815,204.440186 
	C122.167023,207.543808 122.203323,210.213272 121.970634,213.028229 
	C121.472755,213.721420 121.243858,214.269135 121.014954,214.816833 
	C120.518616,214.558533 120.022278,214.300217 119.258224,213.942535 
z"/>
<path fill="#262525" opacity="1.000000" stroke="none" 
	d="
M84.375214,195.135254 
	C86.808830,195.740158 89.242447,196.345078 91.304550,197.379028 
	C90.585754,197.913986 90.238457,198.019913 89.448303,198.096451 
	C87.540703,198.068390 86.034363,197.849472 84.619812,198.116608 
	C81.608849,198.685257 81.808510,196.960800 82.424789,195.005035 
	C83.261368,195.047195 83.818291,195.091217 84.375214,195.135254 
z"/>
<path fill="#353434" opacity="1.000000" stroke="none" 
	d="
M199.309326,213.924789 
	C198.994629,210.634491 198.994629,207.436310 198.994629,204.238129 
	C199.533447,204.201508 200.072266,204.164886 200.611099,204.128265 
	C200.710526,207.290466 200.809967,210.452682 200.855225,214.105331 
	C200.408691,214.402817 200.016357,214.209854 199.309326,213.924789 
z"/>
<path fill="#262525" opacity="1.000000" stroke="none" 
	d="
M121.286484,215.049316 
	C121.243858,214.269135 121.472755,213.721420 122.342300,213.069824 
	C124.115051,212.681183 125.247154,212.396439 126.521912,212.552704 
	C126.770798,213.601776 126.877029,214.209854 126.983253,214.817932 
	C125.174835,214.972549 123.366417,215.127167 121.286484,215.049316 
z"/>
<path fill="#2E2D2D" opacity="1.000000" stroke="none" 
	d="
M84.317184,194.777924 
	C83.818291,195.091217 83.261368,195.047195 82.356560,194.624619 
	C81.885376,193.228058 81.762077,192.210022 81.638779,191.192001 
	C81.962906,190.992752 82.287033,190.793503 82.775757,190.358795 
	C83.379959,191.555740 83.819557,192.988159 84.317184,194.777924 
z"/>
<path fill="#313131" opacity="1.000000" stroke="none" 
	d="
M129.714752,197.150238 
	C130.348465,197.446960 130.655136,197.879761 130.871399,198.838959 
	C130.400223,199.973618 130.019455,200.581879 129.198349,201.138702 
	C128.167770,201.057770 127.577530,201.028275 126.987381,200.649963 
	C126.985741,199.603729 126.984016,198.906311 126.982300,198.208893 
	C127.784111,197.901367 128.585922,197.593857 129.714752,197.150238 
z"/>
<path fill="#353434" opacity="1.000000" stroke="none" 
	d="
M208.590927,197.147736 
	C208.412888,198.290848 210.415131,201.488922 206.160797,200.012878 
	C205.735931,199.787720 205.782608,199.487152 205.782608,199.487152 
	C205.844513,198.929214 205.906433,198.371292 205.984756,197.392380 
	C206.727234,197.056076 207.453293,197.140747 208.590927,197.147736 
z"/>
<path fill="#313131" opacity="1.000000" stroke="none" 
	d="
M137.563034,189.749298 
	C137.643173,191.255753 137.450897,193.004486 136.941177,194.943527 
	C136.846024,193.419754 137.068329,191.705643 137.563034,189.749298 
z"/>
<path fill="#2E2D2D" opacity="1.000000" stroke="none" 
	d="
M60.053490,210.280914 
	C60.520035,209.983215 60.987663,209.984360 62.067902,210.136627 
	C63.574024,211.129807 64.467537,211.971878 65.361038,212.813965 
	C64.667130,212.910492 63.973217,213.007004 62.760326,213.185898 
	C61.512421,212.372101 60.783493,211.475937 60.053490,210.280914 
z"/>
<path fill="#353434" opacity="1.000000" stroke="none" 
	d="
M211.208954,212.407990 
	C211.147385,212.992310 211.085815,213.576614 211.011215,214.601578 
	C210.262970,214.712585 209.527756,214.382950 208.385239,214.002243 
	C208.650391,213.293152 209.322830,212.635117 210.436371,211.918762 
	C211.091339,211.980392 211.201828,212.162903 211.208954,212.407990 
z"/>
<path fill="#393838" opacity="1.000000" stroke="none" 
	d="
M156.599518,204.421173 
	C156.560715,205.273972 156.525238,206.471054 156.260040,207.828766 
	C156.221146,206.914734 156.411987,205.840103 156.599518,204.421173 
z"/>
<path fill="#313131" opacity="1.000000" stroke="none" 
	d="
M127.297775,214.713409 
	C126.877029,214.209854 126.770798,213.601776 126.512688,212.527405 
	C126.360802,212.061111 126.373650,212.008423 127.259155,211.789001 
	C128.670822,211.264526 129.196991,210.959488 129.700623,210.586884 
	C129.678101,210.519302 129.808273,210.461472 129.808273,210.461472 
	C129.616013,211.132858 129.423752,211.804260 129.176361,212.997467 
	C128.618225,213.882507 128.115265,214.245697 127.297775,214.713409 
z"/>
<path fill="#2E2D2D" opacity="1.000000" stroke="none" 
	d="
M76.484818,189.701019 
	C76.317940,190.124283 75.831184,190.805252 75.169800,191.276398 
	C75.385086,190.697311 75.775009,190.328018 76.484818,189.701019 
z"/>
<path fill="#393838" opacity="1.000000" stroke="none" 
	d="
M155.948975,210.233658 
	C156.326569,210.637589 156.604935,211.260590 156.821701,212.241226 
	C156.456650,211.883484 156.153198,211.168106 155.948975,210.233658 
z"/>
<path fill="#2E2D2D" opacity="1.000000" stroke="none" 
	d="
M58.939896,206.195923 
	C59.253616,206.531464 59.467766,207.050339 59.499420,207.731903 
	C59.158062,207.389496 58.999191,206.884369 58.939896,206.195923 
z"/>
<path fill="#2E2D2D" opacity="1.000000" stroke="none" 
	d="
M59.191887,198.241028 
	C59.382629,198.655258 59.415508,199.208160 59.230911,199.878128 
	C59.020298,199.456696 59.027164,198.918198 59.191887,198.241028 
z"/>
<path fill="#262525" opacity="1.000000" stroke="none" 
	d="
M126.982697,198.052490 
	C126.984016,198.906311 126.985741,199.603729 126.779556,200.648056 
	C126.571655,200.994965 126.155693,200.993790 126.022079,200.722046 
	C125.483803,199.756088 125.079147,199.061890 124.674500,198.367691 
	C124.961525,198.195312 125.248558,198.022919 126.016106,197.696625 
	C126.721382,197.574203 126.883537,197.692001 126.982697,198.052490 
z"/>
<path fill="#262525" opacity="1.000000" stroke="none" 
	d="
M91.476822,197.838654 
	C92.257584,197.998642 92.351227,198.209778 92.272217,198.629639 
	C92.086243,198.911224 91.929565,199.065857 91.338593,199.275848 
	C90.566582,198.929413 90.228874,198.527634 89.891167,198.125854 
	C90.238457,198.019913 90.585754,197.913986 91.476822,197.838654 
z"/>
<path fill="#313131" opacity="1.000000" stroke="none" 
	d="
M108.801849,198.260925 
	C109.036079,198.043045 109.320137,198.007599 109.647934,197.681274 
	C109.701279,197.467987 110.115036,197.694962 109.991074,197.944214 
	C109.531845,198.302628 109.196571,198.411804 108.801849,198.260925 
z"/>
<path fill="#2B2A2A" opacity="1.000000" stroke="none" 
	d="
M93.859764,199.126511 
	C94.008018,199.186310 93.939941,199.426773 93.706612,199.724579 
	C93.643669,199.815643 93.745750,199.340881 93.859764,199.126511 
z"/>
<path fill="#E7E7E7" opacity="1.000000" stroke="none" 
	d="
M175.586945,191.850250 
	C182.500824,189.866623 178.072311,195.681290 180.582474,197.874161 
	C180.289276,197.815292 180.879211,198.038177 181.468369,198.036133 
	C188.434814,198.011948 190.340103,200.459518 189.341782,207.616623 
	C188.718002,212.088547 186.315811,213.482941 182.090317,212.944931 
	C179.979706,212.676193 177.806610,212.898132 175.394638,212.898132 
	C175.394638,205.836990 175.394638,199.036255 175.586945,191.850250 
M179.460144,203.778412 
	C180.238419,205.492767 181.016678,207.207108 181.794952,208.921463 
	C182.872238,208.379425 184.851517,207.856873 184.863724,207.291809 
	C184.906479,205.313904 184.270798,203.321350 183.892792,201.334351 
	C182.428116,201.877365 180.963455,202.420380 179.460144,203.778412 
z"/>
<path fill="#E3E2E2" opacity="1.000000" stroke="none" 
	d="
M205.430893,199.261353 
	C205.782608,199.487152 205.735931,199.787720 205.845673,199.893005 
	C205.955399,204.117203 205.955399,208.236099 205.955399,212.561172 
	C203.581619,213.509995 201.947601,213.379440 202.131439,210.025894 
	C202.231110,208.207397 202.403046,206.322723 202.031906,204.576401 
	C201.828613,203.619888 200.407318,202.106003 199.810455,202.224915 
	C198.682800,202.449554 197.170273,203.501343 196.873901,204.517487 
	C196.383011,206.200485 196.615784,208.135498 196.745911,209.949829 
	C196.984512,213.276535 195.309753,213.497681 192.424927,212.494217 
	C192.424927,206.451431 192.321198,200.332260 192.528336,194.223648 
	C192.562347,193.220810 193.963364,192.264328 194.732605,191.286423 
	C195.395035,192.205261 196.357849,193.040817 196.641724,194.064621 
	C196.975403,195.268112 196.719879,196.634995 196.719879,197.583496 
	C199.806961,198.119751 202.443069,198.577652 205.430893,199.261353 
z"/>
<path fill="#F2F2F2" opacity="1.000000" stroke="none" 
	d="
M211.598129,212.559143 
	C211.201828,212.162903 211.091339,211.980392 210.714447,211.827789 
	C209.209076,205.191910 209.214951,205.186127 218.981918,203.500824 
	C219.091919,203.067627 219.201920,202.634415 219.311920,202.201218 
	C216.594421,201.609314 213.876938,201.017410 210.543304,200.291321 
	C213.099213,196.514160 216.807251,198.560822 220.427856,198.386597 
	C221.749756,199.774124 222.445724,200.876175 223.141693,201.978226 
	C223.109528,205.334015 223.077347,208.689789 222.947510,212.490875 
	C219.228989,212.860870 215.608154,212.785583 211.598129,212.559143 
z"/>
<path fill="#393838" opacity="1.000000" stroke="none" 
	d="
M173.994385,212.524841 
	C173.668625,209.290543 173.339447,205.595596 173.234406,201.434052 
	C173.458527,200.967453 173.900543,200.908234 173.900543,200.908234 
	C173.930695,204.626892 173.960831,208.345535 173.994385,212.524841 
z"/>
<path fill="#353434" opacity="1.000000" stroke="none" 
	d="
M223.375168,201.762527 
	C222.445724,200.876175 221.749756,199.774124 220.857239,198.403198 
	C221.156769,198.091949 221.652863,198.049561 222.519745,197.976135 
	C223.129913,199.145660 223.369278,200.346252 223.375168,201.762527 
z"/>
<path fill="#4B4A4A" opacity="1.000000" stroke="none" 
	d="
M173.917267,200.549164 
	C173.900543,200.908234 173.458527,200.967453 173.235840,200.975677 
	C172.786179,199.954239 172.559174,198.924591 172.653976,197.740875 
	C173.295197,198.454575 173.614609,199.322342 173.917267,200.549164 
z"/>
<path fill="#F0F0F0" opacity="1.000000" stroke="none" 
	d="
M130.074249,210.771652 
	C129.808273,210.461472 129.678101,210.519302 129.758820,210.374878 
	C129.772583,207.217026 129.705627,204.203583 129.638687,201.190140 
	C130.019455,200.581879 130.400223,199.973618 130.890213,199.117325 
	C133.552399,198.474060 136.105377,198.078842 138.998398,197.630981 
	C140.577637,196.138916 136.659164,190.674805 143.003876,191.218124 
	C143.003876,198.614304 143.003876,205.683029 143.003876,213.522491 
	C138.536240,212.661438 134.438232,211.871643 130.074249,210.771652 
M133.343292,206.207672 
	C134.765991,207.067581 136.188675,207.927475 137.611359,208.787384 
	C138.149902,207.079315 139.077942,205.368942 139.067780,203.664154 
	C139.062439,202.770355 137.412064,201.886383 136.504593,200.997986 
	C135.413055,202.465790 134.321518,203.933578 133.343292,206.207672 
z"/>
<path fill="#F2F2F2" opacity="1.000000" stroke="none" 
	d="
M158.977234,213.018280 
	C157.026001,205.672440 157.279663,205.371887 167.073334,203.421539 
	C167.182205,202.982071 167.291061,202.542603 167.399933,202.103134 
	C164.676682,201.547348 161.953430,200.991577 158.640625,200.315475 
	C161.121094,196.569214 164.731979,198.024750 167.548508,198.294907 
	C168.871979,198.421844 170.774689,200.723495 171.014160,202.258209 
	C171.541168,205.635788 171.177734,209.152298 171.177734,212.654312 
	C167.143951,212.654312 163.450058,212.654312 159.357574,212.847687 
	C158.958969,213.041061 158.997513,212.998123 158.977234,213.018280 
z"/>
<path fill="#EEEEEE" opacity="1.000000" stroke="none" 
	d="
M148.075439,212.900024 
	C147.375717,208.062332 147.125702,203.310562 146.870575,198.461304 
	C150.098221,198.461304 152.873962,198.461304 155.863281,198.461304 
	C158.011505,203.130386 152.950943,201.509277 150.909561,203.499176 
	C150.909561,205.439957 151.134033,207.914200 150.800705,210.310852 
	C150.664642,211.289108 149.319931,212.099274 148.075439,212.900024 
z"/>
<path fill="#EEEEEE" opacity="1.000000" stroke="none" 
	d="
M89.448303,198.096451 
	C90.228874,198.527634 90.566582,198.929413 91.103378,199.507568 
	C91.492439,201.848511 91.682404,204.013092 91.864937,206.998688 
	C91.917137,209.213608 91.976776,210.607498 92.036407,212.001389 
	C90.554962,212.445374 89.073517,212.889359 87.007492,213.508545 
	C87.007492,210.717117 87.324699,208.529510 86.904648,206.494049 
	C86.582901,204.934967 85.330055,203.568054 84.491333,202.115662 
	C83.710861,203.485413 82.682899,204.778412 82.226807,206.248779 
	C81.849678,207.464615 82.502907,209.028580 82.051193,210.185028 
	C81.561737,211.438141 80.321373,212.397964 78.581139,214.471481 
	C78.094986,209.821457 77.805374,207.051346 76.896606,204.056244 
	C76.274261,203.318329 76.271065,202.805405 76.267876,202.292480 
	C76.869064,199.761627 77.700134,197.257339 77.996536,194.691284 
	C78.221573,192.742966 78.012848,190.912750 81.222557,191.230896 
	C81.762077,192.210022 81.885376,193.228058 82.076904,194.626495 
	C81.808510,196.960800 81.608849,198.685257 84.619812,198.116608 
	C86.034363,197.849472 87.540703,198.068390 89.448303,198.096451 
z"/>
<path fill="#E4E4E4" opacity="1.000000" stroke="none" 
	d="
M124.243286,198.252853 
	C125.079147,199.061890 125.483803,199.756088 125.995300,201.144058 
	C126.192650,205.228012 126.283150,208.618225 126.373650,212.008423 
	C126.373650,212.008423 126.360802,212.061111 126.370026,212.086411 
	C125.247154,212.396439 124.115051,212.681183 122.611290,212.924316 
	C122.203323,210.213272 122.167023,207.543808 122.043640,204.435364 
	C121.031845,203.035934 120.107132,202.075531 119.182419,201.115112 
	C118.373810,202.129990 117.001305,203.076111 116.867508,204.173294 
	C116.531830,206.925781 116.756622,209.746643 116.756622,212.757355 
	C115.154022,212.757355 113.942833,212.757355 112.676056,212.757355 
	C112.676056,207.737320 112.676056,202.995911 112.676056,198.138016 
	C116.578407,198.138016 120.195244,198.138016 124.243286,198.252853 
z"/>
<path fill="#F0F0F0" opacity="1.000000" stroke="none" 
	d="
M65.785873,212.850220 
	C64.467537,211.971878 63.574024,211.129807 62.418335,210.122467 
	C61.806004,206.542587 60.865665,203.062347 61.236431,199.727921 
	C61.881187,193.929367 68.135338,190.852692 73.331963,193.438202 
	C74.215904,193.877991 74.643112,195.235764 75.593887,196.626694 
	C72.465744,196.949921 70.192245,197.184845 67.315422,197.838440 
	C62.265347,204.863861 63.544025,204.712143 68.969879,209.007797 
	C70.927986,209.007797 72.886086,209.007797 75.488297,209.007797 
	C73.765167,215.062424 69.319916,212.311005 65.785873,212.850220 
z"/>
<path fill="#DFDFDF" opacity="1.000000" stroke="none" 
	d="
M69.085777,208.504089 
	C63.544025,204.712143 62.265347,204.863861 67.015839,198.169128 
	C70.107819,199.304092 74.311768,195.969696 76.127731,201.533112 
	C76.271065,202.805405 76.274261,203.318329 76.276878,203.787231 
	C76.313133,209.142395 72.001022,207.314423 69.085777,208.504089 
z"/>
<path fill="#2B2A2A" opacity="1.000000" stroke="none" 
	d="
M92.440292,211.998734 
	C91.976776,210.607498 91.917137,209.213608 91.946938,207.409180 
	C92.818787,207.002121 93.601204,207.005585 94.774940,207.009445 
	C95.413078,208.429337 95.659889,209.848816 95.991035,211.619537 
	C94.998306,211.979202 93.921234,211.987640 92.440292,211.998734 
z"/>
<path fill="#EEEEEE" opacity="1.000000" stroke="none" 
	d="
M228.016663,212.859406 
	C227.374008,208.022156 227.162628,203.280792 226.952866,198.576111 
	C239.785645,197.479095 240.314774,197.672272 240.653931,203.326614 
	C241.187103,212.215332 241.086868,212.493423 236.757996,212.678192 
	C236.757996,209.886353 236.916916,207.094757 236.680496,204.337067 
	C236.584732,203.220032 235.851151,201.571701 235.002975,201.257309 
	C234.001831,200.886215 232.169586,201.336716 231.448410,202.121185 
	C230.952530,202.660583 231.478104,204.500977 231.990387,205.541672 
	C234.054184,209.734238 232.829849,212.424942 228.016663,212.859406 
z"/>
<path fill="#2B2A2A" opacity="1.000000" stroke="none" 
	d="
M127.259155,211.789001 
	C126.283150,208.618225 126.192650,205.228012 126.128922,201.415802 
	C126.155693,200.993790 126.571655,200.994965 126.779472,200.996872 
	C127.577530,201.028275 128.167770,201.057770 129.198349,201.138702 
	C129.705627,204.203583 129.772583,207.217026 129.781342,210.442459 
	C129.196991,210.959488 128.670822,211.264526 127.259155,211.789001 
z"/>
<path fill="#3E3E3E" opacity="1.000000" stroke="none" 
	d="
M179.479462,203.370911 
	C180.963455,202.420380 182.428116,201.877365 183.892792,201.334351 
	C184.270798,203.321350 184.906479,205.313904 184.863724,207.291809 
	C184.851517,207.856873 182.872238,208.379425 181.794952,208.921463 
	C181.016678,207.207108 180.238419,205.492767 179.479462,203.370911 
z"/>
<path fill="#3E3E3E" opacity="1.000000" stroke="none" 
	d="
M133.286636,205.804520 
	C134.321518,203.933578 135.413055,202.465790 136.504593,200.997986 
	C137.412064,201.886383 139.062439,202.770355 139.067780,203.664154 
	C139.077942,205.368942 138.149902,207.079315 137.611359,208.787384 
	C136.188675,207.927475 134.765991,207.067581 133.286636,205.804520 
z"/>
</svg>